<?xml version="1.0"?>
<svg xmlns="http://www.w3.org/2000/svg" xmlns:xlink="http://www.w3.org/1999/xlink" xmlns:svgjs="http://svgjs.com/svgjs" version="1.1" width="512" height="512" x="0" y="0" viewBox="0 0 512 512" style="enable-background:new 0 0 512 512" xml:space="preserve" class=""><g>
<g xmlns="http://www.w3.org/2000/svg">
	<g>
		<path d="M447.869,102.318c0-6.286-2.448-12.195-6.893-16.639L362.192,6.894c-4.444-4.445-10.354-6.893-16.64-6.893L79.645,0    c-8.556,0-15.516,6.96-15.516,15.516v480.968c0,8.556,6.96,15.516,15.516,15.516h352.71c8.556,0,15.516-6.96,15.516-15.516    L447.869,102.318z M359.693,25.607l62.569,62.57h-62.053c-0.285,0-0.516-0.231-0.516-0.516V25.607z M432.355,497H79.645    c-0.285,0-0.516-0.231-0.516-0.516V15.516c0-0.285,0.231-0.516,0.516-0.516l265.048,0.001v72.66    c0,8.556,6.96,15.516,15.516,15.516h72.66l0.002,393.307C432.871,496.769,432.64,497,432.355,497z" fill="#4193d3" data-original="#000000" style="" class=""/>
	</g>
</g>
<g xmlns="http://www.w3.org/2000/svg">
	<g>
		<path d="M256,128.259c-21.815,0-39.564,17.748-39.564,39.564v24.048c0,21.816,17.749,39.564,39.564,39.564    s39.564-17.749,39.564-39.564v-24.048C295.564,146.007,277.815,128.259,256,128.259z M280.564,191.871    c0,13.545-11.02,24.564-24.564,24.564s-24.564-11.02-24.564-24.564v-24.048c0-13.545,11.02-24.564,24.564-24.564    s24.564,11.019,24.564,24.564V191.871z" fill="#4193d3" data-original="#000000" style="" class=""/>
	</g>
</g>
<g xmlns="http://www.w3.org/2000/svg">
	<g>
		<path d="M191.878,128.258c-4.142,0-7.5,3.358-7.5,7.5v56.113c0,13.545-11.02,24.564-24.564,24.564    c-7.046,0-13.764-3.034-18.431-8.325c-2.74-3.105-7.479-3.403-10.586-0.663c-3.106,2.74-3.403,7.479-0.663,10.586    c7.513,8.517,18.331,13.402,29.68,13.402c21.816,0,39.564-17.749,39.564-39.564v-56.113    C199.378,131.616,196.02,128.258,191.878,128.258z" fill="#4193d3" data-original="#000000" style="" class=""/>
	</g>
</g>
<g xmlns="http://www.w3.org/2000/svg">
	<g>
		<path d="M369.33,173.42c3.989-4.779,6.395-10.924,6.395-17.622c0-15.186-12.354-27.54-27.54-27.54h-28.057    c-4.141,0-7.499,3.358-7.499,7.5v88.177c0,4.142,3.358,7.5,7.5,7.5h32.064c17.396,0,31.548-14.152,31.548-31.548    C383.741,188.807,377.994,179.049,369.33,173.42z M327.629,143.258h20.557c6.915,0,12.54,5.625,12.54,12.54    c0,6.915-5.625,12.541-12.54,12.541h-20.557V143.258z M352.193,216.436h-24.564v-33.097h24.564    c9.125,0,16.548,7.423,16.548,16.548S361.318,216.436,352.193,216.436z" fill="#4193d3" data-original="#000000" style="" class=""/>
	</g>
</g>
<g xmlns="http://www.w3.org/2000/svg">
	<g>
		<path d="M384.258,256.516H127.742c-4.142,0-7.5,3.358-7.5,7.5c0,4.142,3.358,7.5,7.5,7.5h256.517c4.142,0,7.5-3.358,7.5-7.5    C391.759,259.874,388.4,256.516,384.258,256.516z" fill="#4193d3" data-original="#000000" style="" class=""/>
	</g>
</g>
<g xmlns="http://www.w3.org/2000/svg">
	<g>
		<path d="M231.952,304.613h-104.21c-4.142,0-7.5,3.358-7.5,7.5c0,4.142,3.358,7.5,7.5,7.5h104.21c4.142,0,7.5-3.358,7.5-7.5    C239.452,307.971,236.094,304.613,231.952,304.613z" fill="#4193d3" data-original="#000000" style="" class=""/>
	</g>
</g>
<g xmlns="http://www.w3.org/2000/svg">
	<g>
		<path d="M231.952,384.774h-104.21c-4.142,0-7.5,3.358-7.5,7.5s3.358,7.5,7.5,7.5h104.21c4.142,0,7.5-3.358,7.5-7.5    S236.094,384.774,231.952,384.774z" fill="#4193d3" data-original="#000000" style="" class=""/>
	</g>
</g>
<g xmlns="http://www.w3.org/2000/svg">
	<g>
		<path d="M143.775,344.693h-16.033c-4.142,0-7.5,3.358-7.5,7.5c0,4.142,3.358,7.5,7.5,7.5h16.033c4.142,0,7.5-3.358,7.5-7.5    C151.275,348.051,147.917,344.693,143.775,344.693z" fill="#4193d3" data-original="#000000" style="" class=""/>
	</g>
</g>
<g xmlns="http://www.w3.org/2000/svg">
	<g>
		<path d="M231.952,344.693h-56.114c-4.142,0-7.5,3.358-7.5,7.5c0,4.142,3.358,7.5,7.5,7.5h56.114c4.142,0,7.5-3.358,7.5-7.5    C239.452,348.051,236.094,344.693,231.952,344.693z" fill="#4193d3" data-original="#000000" style="" class=""/>
	</g>
</g>
<g xmlns="http://www.w3.org/2000/svg">
	<g>
		<path d="M384.258,344.693h-104.21c-4.142,0-7.5,3.358-7.5,7.5c0,4.142,3.358,7.5,7.5,7.5h104.21c4.142,0,7.5-3.358,7.5-7.5    C391.758,348.051,388.4,344.693,384.258,344.693z" fill="#4193d3" data-original="#000000" style="" class=""/>
	</g>
</g>
<g xmlns="http://www.w3.org/2000/svg">
	<g>
		<path d="M384.258,424.855h-104.21c-4.142,0-7.5,3.358-7.5,7.5s3.358,7.5,7.5,7.5h104.21c4.142,0,7.5-3.358,7.5-7.5    S388.4,424.855,384.258,424.855z" fill="#4193d3" data-original="#000000" style="" class=""/>
	</g>
</g>
<g xmlns="http://www.w3.org/2000/svg">
	<g>
		<path d="M336.162,304.613h-56.114c-4.142,0-7.5,3.358-7.5,7.5c0,4.142,3.358,7.5,7.5,7.5h56.114c4.142,0,7.5-3.358,7.5-7.5    C343.662,307.971,340.304,304.613,336.162,304.613z" fill="#4193d3" data-original="#000000" style="" class=""/>
	</g>
</g>
<g xmlns="http://www.w3.org/2000/svg">
	<g>
		<path d="M384.258,304.613h-16.033c-4.142,0-7.5,3.358-7.5,7.5c0,4.142,3.358,7.5,7.5,7.5h16.033c4.142,0,7.5-3.358,7.5-7.5    C391.758,307.971,388.4,304.613,384.258,304.613z" fill="#4193d3" data-original="#000000" style="" class=""/>
	</g>
</g>
<g xmlns="http://www.w3.org/2000/svg">
	<g>
		<path d="M384.258,384.774H336.16c-4.142,0-7.5,3.358-7.5,7.5s3.358,7.5,7.5,7.5h48.098c4.142,0,7.5-3.358,7.5-7.5    S388.4,384.774,384.258,384.774z" fill="#4193d3" data-original="#000000" style="" class=""/>
	</g>
</g>
<g xmlns="http://www.w3.org/2000/svg">
	<g>
		<path d="M304.098,384.774h-24.05c-4.142,0-7.5,3.358-7.5,7.5s3.358,7.5,7.5,7.5h24.05c4.142,0,7.5-3.358,7.5-7.5    S308.24,384.774,304.098,384.774z" fill="#4193d3" data-original="#000000" style="" class=""/>
	</g>
</g>
<g xmlns="http://www.w3.org/2000/svg">
	<g>
		<path d="M175.839,424.855h-48.097c-4.142,0-7.5,3.358-7.5,7.5s3.358,7.5,7.5,7.5h48.098c4.142,0,7.5-3.358,7.5-7.5    S179.981,424.855,175.839,424.855z" fill="#4193d3" data-original="#000000" style="" class=""/>
	</g>
</g>
<g xmlns="http://www.w3.org/2000/svg">
	<g>
		<path d="M231.952,424.855h-24.049c-4.142,0-7.5,3.358-7.5,7.5s3.358,7.5,7.5,7.5h24.049c4.142,0,7.5-3.358,7.5-7.5    S236.094,424.855,231.952,424.855z" fill="#4193d3" data-original="#000000" style="" class=""/>
	</g>
</g>
<g xmlns="http://www.w3.org/2000/svg">
	<g>
		<path d="M320.129,88.177H127.742c-4.142,0-7.5,3.358-7.5,7.5c0,4.142,3.358,7.5,7.5,7.5h192.387c4.142,0,7.5-3.358,7.5-7.5    C327.629,91.535,324.271,88.177,320.129,88.177z" fill="#4193d3" data-original="#000000" style="" class=""/>
	</g>
</g>
<g xmlns="http://www.w3.org/2000/svg">
</g>
<g xmlns="http://www.w3.org/2000/svg">
</g>
<g xmlns="http://www.w3.org/2000/svg">
</g>
<g xmlns="http://www.w3.org/2000/svg">
</g>
<g xmlns="http://www.w3.org/2000/svg">
</g>
<g xmlns="http://www.w3.org/2000/svg">
</g>
<g xmlns="http://www.w3.org/2000/svg">
</g>
<g xmlns="http://www.w3.org/2000/svg">
</g>
<g xmlns="http://www.w3.org/2000/svg">
</g>
<g xmlns="http://www.w3.org/2000/svg">
</g>
<g xmlns="http://www.w3.org/2000/svg">
</g>
<g xmlns="http://www.w3.org/2000/svg">
</g>
<g xmlns="http://www.w3.org/2000/svg">
</g>
<g xmlns="http://www.w3.org/2000/svg">
</g>
<g xmlns="http://www.w3.org/2000/svg">
</g>
</g></svg>
